# xmcd
#
# Track frame offsets: 
#        150
#        14899
#        40831
#        65447
#        83381
#        95576
#        110049
#        127651
#        139774
#
# Disc length: 2139 seconds
#
# Revision: 0
# Processed by: cddbd v1.5.2PL0 Copyright (c) Steve Scherf et al.
# Submitted via: ExactAudioCopy v1.0b1
#
DISCID=72085909
DTITLE=Bob Wilson - Barkindji Man
DYEAR=1900
DGENRE=Country
TTITLE0=The Old Tin Shack
TTITLE1=I Am What I Am
TTITLE2=This Road
TTITLE3=Moonbird People
TTITLE4=Walkabout
TTITLE5=Dream Catcher
TTITLE6=Future Lover
TTITLE7=Song With A Moral
TTITLE8=My Last Ride
EXTD=
EXTT0=
EXTT1=
EXTT2=
EXTT3=
EXTT4=
EXTT5=
EXTT6=
EXTT7=
EXTT8=
PLAYORDER=
